<svg xmlns="http://www.w3.org/2000/svg" version="1.1" xmlns:xlink="http://www.w3.org/1999/xlink" xmlns:svgjs="http://svgjs.dev/svgjs" width="1500" height="1500" viewBox="0 0 1500 1500"><g transform="matrix(1,0,0,1,-0.7499999999998863,-0.7499999999998863)"><svg viewBox="0 0 280 280" data-background-color="#1d366f" preserveAspectRatio="xMidYMid meet" height="1500" width="1500" xmlns="http://www.w3.org/2000/svg" xmlns:xlink="http://www.w3.org/1999/xlink"><g id="tight-bounds" transform="matrix(1,0,0,1,0.13999999999998636,0.13999999999998636)"><svg viewBox="0 0 279.72 279.72" height="279.72" width="279.72"><g><svg viewBox="0 0 279.72 279.72" height="279.72" width="279.72"><g><svg viewBox="0 0 279.72 279.72" height="279.72" width="279.72"><g id="textblocktransform"><svg viewBox="0 0 279.72 279.72" height="279.72" width="279.72" id="textblock"><g><svg viewBox="0 0 279.72 279.72" height="279.72" width="279.72"><g transform="matrix(1,0,0,1,64.03976828049126,71.50238951272637)"><svg viewBox="0 0 151.6404634390175 136.7152209745473" height="136.7152209745473" width="151.6404634390175"><g id="icon-0"><svg xmlns="http://www.w3.org/2000/svg" xmlns:xlink="http://www.w3.org/1999/xlink" version="1.1" x="0" y="0" viewBox="0.5 6.7 127 114.5" enable-background="new 0 0 128 128" xml:space="preserve" height="136.7152209745473" width="151.6404634390175" class="icon-jxe-0" data-fill-palette-color="accent" id="jxe-0"><g fill="#18ff00" data-fill-palette-color="accent"><path d="M14.4 50C14 50 13.7 50.3 13.7 50.7V60.4C13.7 60.8 14 61.1 14.4 61.1S15.1 60.8 15.1 60.4V50.7C15.2 50.4 14.8 50 14.4 50" fill="#18ff00" data-fill-palette-color="accent"></path><path d="M14.4 64.2C14 64.2 13.7 64.5 13.7 64.9V68.4C13.7 68.8 14 69.1 14.4 69.1S15.1 68.8 15.1 68.4V65C15.2 64.6 14.8 64.2 14.4 64.2" fill="#18ff00" data-fill-palette-color="accent"></path><path d="M126.8 68.2C126.4 68.2 126.1 68.5 126.1 68.9V78.6C126.1 79 126.4 79.3 126.8 79.3S127.5 79 127.5 78.6V68.9C127.5 68.5 127.2 68.2 126.8 68.2" fill="#18ff00" data-fill-palette-color="accent"></path><path d="M126.8 82.4C126.4 82.4 126.1 82.7 126.1 83.1V86.6C126.1 87 126.4 87.3 126.8 87.3S127.5 87 127.5 86.6V83.1C127.5 82.7 127.2 82.4 126.8 82.4" fill="#18ff00" data-fill-palette-color="accent"></path><path d="M120.2 8C118.2 8 116.5 9.7 116.5 11.7S118.2 15.4 120.2 15.4 123.9 13.7 123.9 11.7 122.2 8 120.2 8M120.2 13.9C119 13.9 118 12.9 118 11.7S119 9.5 120.2 9.5 122.4 10.5 122.4 11.7 121.4 13.9 120.2 13.9" fill="#18ff00" data-fill-palette-color="accent"></path><path d="M4.2 90.2C2.2 90.2 0.5 91.9 0.5 93.9S2.2 97.6 4.2 97.6 7.9 95.9 7.9 93.9C7.9 91.8 6.2 90.2 4.2 90.2M4.2 96.1C3 96.1 2 95.1 2 93.9S3 91.7 4.2 91.7 6.4 92.7 6.4 93.9 5.4 96.1 4.2 96.1" fill="#18ff00" data-fill-palette-color="accent"></path><path d="M22.1 27.4H10.1C9.7 27.4 9.4 27.7 9.4 28.1S9.7 28.8 10.1 28.8H22.1C22.5 28.8 22.8 28.5 22.8 28.1 22.9 27.7 22.5 27.4 22.1 27.4" fill="#18ff00" data-fill-palette-color="accent"></path><path d="M2.2 28.8H6.1C6.5 28.8 6.8 28.5 6.8 28.1S6.5 27.4 6.1 27.4H2.2C1.8 27.4 1.5 27.7 1.5 28.1S1.8 28.8 2.2 28.8" fill="#18ff00" data-fill-palette-color="accent"></path><path d="M2.2 24.7H10.6C11 24.7 11.3 24.4 11.3 24S11 23.3 10.6 23.3H2.2C1.8 23.3 1.5 23.6 1.5 24S1.8 24.7 2.2 24.7" fill="#18ff00" data-fill-palette-color="accent"></path><path d="M14.2 24.7H16.9C17.3 24.7 17.6 24.4 17.6 24S17.3 23.3 16.9 23.3H14.2C13.8 23.3 13.5 23.6 13.5 24S13.8 24.7 14.2 24.7" fill="#18ff00" data-fill-palette-color="accent"></path><path d="M113.2 116.5C113.2 116.1 112.9 115.8 112.5 115.8H100.5C100.1 115.8 99.8 116.1 99.8 116.5S100.1 117.2 100.5 117.2H112.5C112.9 117.2 113.2 116.9 113.2 116.5" fill="#18ff00" data-fill-palette-color="accent"></path><path d="M120.3 115.7H116.4C116 115.7 115.7 116 115.7 116.4S116 117.1 116.4 117.1H120.3C120.7 117.1 121 116.8 121 116.4S120.7 115.7 120.3 115.7" fill="#18ff00" data-fill-palette-color="accent"></path><path d="M120.3 119.8H111.9C111.5 119.8 111.2 120.1 111.2 120.5S111.5 121.2 111.9 121.2H120.3C120.7 121.2 121 120.9 121 120.5S120.7 119.8 120.3 119.8" fill="#18ff00" data-fill-palette-color="accent"></path><path d="M108.3 119.8H105.6C105.2 119.8 104.9 120.1 104.9 120.5S105.2 121.2 105.6 121.2H108.3C108.7 121.2 109 120.9 109 120.5S108.7 119.8 108.3 119.8" fill="#18ff00" data-fill-palette-color="accent"></path><path d="M105.6 36.5C105.7 36.6 105.9 36.7 106.1 36.7S106.5 36.6 106.6 36.5C106.9 36.2 106.9 35.7 106.6 35.5L105 33.9C104.7 33.6 104.2 33.6 104 33.9 103.7 34.2 103.7 34.7 104 34.9z" fill="#18ff00" data-fill-palette-color="accent"></path><path d="M110.6 41.6C110.7 41.7 110.9 41.8 111.1 41.8S111.5 41.7 111.6 41.6C111.9 41.3 111.9 40.8 111.6 40.6L110 39C109.7 38.7 109.2 38.7 109 39 108.7 39.3 108.7 39.8 109 40z" fill="#18ff00" data-fill-palette-color="accent"></path><path d="M104.6 41.8C104.8 41.8 105 41.7 105.1 41.6L106.7 40C107 39.7 107 39.2 106.7 39 106.4 38.7 105.9 38.7 105.7 39L104.1 40.6C103.8 40.9 103.8 41.4 104.1 41.6 104.2 41.7 104.4 41.8 104.6 41.8" fill="#18ff00" data-fill-palette-color="accent"></path><path d="M109.6 36.8C109.8 36.8 110 36.7 110.1 36.6L111.7 35C112 34.7 112 34.2 111.7 34 111.4 33.7 110.9 33.7 110.7 34L109.1 35.6C108.8 35.9 108.8 36.4 109.1 36.6 109.2 36.7 109.4 36.8 109.6 36.8" fill="#18ff00" data-fill-palette-color="accent"></path><path d="M13.3 112.6C13 112.3 12.5 112.3 12.3 112.6 12 112.9 12 113.4 12.3 113.6L13.9 115.2C14 115.3 14.2 115.4 14.4 115.4S14.8 115.3 14.9 115.2C15.2 114.9 15.2 114.4 14.9 114.2z" fill="#18ff00" data-fill-palette-color="accent"></path><path d="M18.4 117.7C18.1 117.4 17.6 117.4 17.4 117.7S17.1 118.5 17.4 118.7L19 120.3C19.1 120.4 19.3 120.5 19.5 120.5S19.9 120.4 20 120.3C20.3 120 20.3 119.5 20 119.3z" fill="#18ff00" data-fill-palette-color="accent"></path><path d="M13.8 117.7L12.2 119.3C11.9 119.6 11.9 120.1 12.2 120.3 12.3 120.4 12.5 120.5 12.7 120.5S13.1 120.4 13.2 120.3L14.8 118.7C15.1 118.4 15.1 117.9 14.8 117.7 14.6 117.4 14.1 117.4 13.8 117.7" fill="#18ff00" data-fill-palette-color="accent"></path><path d="M18.9 112.6L17.3 114.2C17 114.5 17 115 17.3 115.2 17.4 115.3 17.6 115.4 17.8 115.4S18.2 115.3 18.3 115.2L19.9 113.6C20.2 113.3 20.2 112.8 19.9 112.6S19.2 112.4 18.9 112.6" fill="#18ff00" data-fill-palette-color="accent"></path><path d="M91.5 6.7H29.7C28.6 6.7 27.7 7.6 27.7 8.7V22.5C27.7 23.6 28.6 24.5 29.7 24.5H44.1V32.7H29.7C28.6 32.7 27.7 33.6 27.7 34.7V48.5C27.7 49.6 28.6 50.5 29.7 50.5H44.1V58.7H29.7C28.6 58.7 27.7 59.6 27.7 60.7V74.5C27.7 75.6 28.6 76.5 29.7 76.5H44.1V84.7H29.7C28.6 84.7 27.7 85.6 27.7 86.7V100.5C27.7 101.6 28.6 102.5 29.7 102.5H36.4V106.8H32.6C32.2 106.8 31.9 107.1 31.9 107.4L30.9 112.4C30.9 112.6 30.9 112.8 31.1 113 31.2 113.2 31.4 113.3 31.7 113.3H89.6C89.8 113.3 90 113.2 90.2 113 90.3 112.8 90.4 112.6 90.4 112.4L89.4 107.4C89.3 107.1 89 106.8 88.7 106.8H84.9V102.5H91.6C92.7 102.5 93.6 101.6 93.6 100.5V87C93.6 85.9 92.7 85 91.6 85H77.1V76.8H91.5C92.6 76.8 93.5 75.9 93.5 74.8V60.9C93.5 59.8 92.6 58.9 91.5 58.9H77.1V50.7H91.5C92.6 50.7 93.5 49.8 93.5 48.7V34.8C93.5 33.7 92.6 32.8 91.5 32.8H77.1V24.6H91.5C92.6 24.6 93.5 23.7 93.5 22.6V8.7C93.6 7.6 92.7 6.7 91.5 6.7M88.7 112.2H32.5L33.2 108.6H88zM83.3 107.1H37.8V102.8H83.3zM92.1 87V100.8C92.1 101.1 91.8 101.4 91.5 101.4H29.7C29.4 101.4 29.1 101.1 29.1 100.8V87C29.1 86.7 29.4 86.4 29.7 86.4H91.6C91.8 86.4 92.1 86.7 92.1 87M75.6 84.9H45.6V76.7H75.6zM92.1 60.9V74.7C92.1 75 91.8 75.3 91.5 75.3H29.7C29.4 75.3 29.1 75 29.1 74.7V60.9C29.1 60.6 29.4 60.3 29.7 60.3H91.6C91.8 60.3 92.1 60.6 92.1 60.9M75.6 58.9H45.6V50.7H75.6zM92.1 34.8V48.6C92.1 48.9 91.8 49.2 91.5 49.2H29.7C29.4 49.2 29.1 48.9 29.1 48.6V34.8C29.1 34.5 29.4 34.2 29.7 34.2H91.6C91.8 34.2 92.1 34.5 92.1 34.8M75.6 32.8H45.6V24.6H75.6zM92.1 22.5C92.1 22.8 91.8 23.1 91.5 23.1H29.7C29.4 23.1 29.1 22.8 29.1 22.5V8.7C29.1 8.4 29.4 8.1 29.7 8.1H91.6C91.9 8.1 92.2 8.4 92.2 8.7V22.5z" fill="#18ff00" data-fill-palette-color="accent"></path><path d="M37.5 10.9C34.9 10.9 32.8 13 32.8 15.6S34.9 20.3 37.5 20.3 42.2 18.2 42.2 15.6C42.1 13 40 10.9 37.5 10.9M37.5 18.8C35.7 18.8 34.3 17.4 34.3 15.6S35.7 12.4 37.5 12.4 40.7 13.8 40.7 15.6 39.2 18.8 37.5 18.8" fill="#18ff00" data-fill-palette-color="accent"></path><path d="M48.6 13.2C46.6 13.2 45 14.8 45 16.8S46.6 20.4 48.6 20.4 52.2 18.8 52.2 16.8 50.6 13.2 48.6 13.2M48.6 18.8C47.4 18.8 46.5 17.9 46.5 16.7S47.4 14.6 48.6 14.6 50.7 15.5 50.7 16.7 49.7 18.8 48.6 18.8" fill="#18ff00" data-fill-palette-color="accent"></path><path d="M86.3 12H64.9C64.5 12 64.2 12.3 64.2 12.7V18.4C64.2 18.8 64.5 19.1 64.9 19.1H86.3C86.7 19.1 87 18.8 87 18.4V12.7C87 12.4 86.7 12 86.3 12M85.5 17.7H65.5V13.5H85.5z" fill="#18ff00" data-fill-palette-color="accent"></path><path d="M37.5 37C34.9 37 32.8 39.1 32.8 41.7S34.9 46.4 37.5 46.4 42.2 44.3 42.2 41.7C42.1 39.1 40 37 37.5 37M37.5 44.9C35.7 44.9 34.3 43.5 34.3 41.7S35.7 38.5 37.5 38.5 40.7 39.9 40.7 41.7 39.2 44.9 37.5 44.9" fill="#18ff00" data-fill-palette-color="accent"></path><path d="M48.6 39.2C46.6 39.2 45 40.8 45 42.8S46.6 46.4 48.6 46.4 52.2 44.8 52.2 42.8 50.6 39.2 48.6 39.2M48.6 44.9C47.4 44.9 46.5 44 46.5 42.8S47.4 40.7 48.6 40.7 50.7 41.6 50.7 42.8 49.7 44.9 48.6 44.9" fill="#18ff00" data-fill-palette-color="accent"></path><path d="M64.1 38.9V44.6C64.1 45 64.4 45.3 64.8 45.3H86.2C86.6 45.3 86.9 45 86.9 44.6V38.9C86.9 38.5 86.6 38.2 86.2 38.2H64.9C64.4 38.1 64.1 38.4 64.1 38.9M65.6 39.6H85.6V43.8H65.6z" fill="#18ff00" data-fill-palette-color="accent"></path><path d="M37.5 63.1C34.9 63.1 32.8 65.2 32.8 67.8S34.9 72.5 37.5 72.5 42.2 70.4 42.2 67.8C42.1 65.2 40 63.1 37.5 63.1M37.5 71C35.7 71 34.3 69.6 34.3 67.8S35.7 64.6 37.5 64.6 40.7 66 40.7 67.8C40.7 69.5 39.2 71 37.5 71" fill="#18ff00" data-fill-palette-color="accent"></path><path d="M48.6 65.3C46.6 65.3 45 66.9 45 68.9S46.6 72.5 48.6 72.5 52.2 70.9 52.2 68.9 50.6 65.3 48.6 65.3M48.6 71C47.4 71 46.5 70.1 46.5 68.9S47.4 66.8 48.6 66.8 50.7 67.7 50.7 68.9C50.7 70 49.7 71 48.6 71" fill="#18ff00" data-fill-palette-color="accent"></path><path d="M64.1 64.9V70.6C64.1 71 64.4 71.3 64.8 71.3H86.2C86.6 71.3 86.9 71 86.9 70.6V64.9C86.9 64.5 86.6 64.2 86.2 64.2H64.9C64.4 64.2 64.1 64.5 64.1 64.9M65.6 65.7H85.6V69.9H65.6z" fill="#18ff00" data-fill-palette-color="accent"></path><path d="M37.5 89.2C34.9 89.2 32.8 91.3 32.8 93.9S34.9 98.6 37.5 98.6 42.2 96.5 42.2 93.9C42.1 91.3 40 89.2 37.5 89.2M37.5 97.1C35.7 97.1 34.3 95.7 34.3 93.9S35.7 90.7 37.5 90.7 40.7 92.1 40.7 93.9C40.7 95.6 39.2 97.1 37.5 97.1" fill="#18ff00" data-fill-palette-color="accent"></path><path d="M48.6 91.4C46.6 91.4 45 93 45 95S46.6 98.6 48.6 98.6 52.2 97 52.2 95 50.6 91.4 48.6 91.4M48.6 97.1C47.4 97.1 46.5 96.2 46.5 95S47.4 92.9 48.6 92.9 50.7 93.8 50.7 95 49.7 97.1 48.6 97.1" fill="#18ff00" data-fill-palette-color="accent"></path><path d="M64.1 91V96.7C64.1 97.1 64.4 97.4 64.8 97.4H86.2C86.6 97.4 86.9 97.1 86.9 96.7V91C86.9 90.6 86.6 90.3 86.2 90.3H64.9C64.4 90.3 64.1 90.6 64.1 91M65.6 91.8H85.6V96H65.6z" fill="#18ff00" data-fill-palette-color="accent"></path><path d="M57.8 12.1C57.4 12.1 57.1 12.4 57.1 12.8V18.5C57.1 18.9 57.4 19.2 57.8 19.2S58.5 18.9 58.5 18.5V12.8C58.5 12.4 58.2 12.1 57.8 12.1" fill="#18ff00" data-fill-palette-color="accent"></path><path d="M57.8 38.1C57.4 38.1 57.1 38.4 57.1 38.8V44.5C57.1 44.9 57.4 45.2 57.8 45.2S58.5 44.9 58.5 44.5V38.8C58.5 38.5 58.2 38.1 57.8 38.1" fill="#18ff00" data-fill-palette-color="accent"></path><path d="M57.8 64.2C57.4 64.2 57.1 64.5 57.1 64.9V70.6C57.1 71 57.4 71.3 57.8 71.3S58.5 71 58.5 70.6V65C58.5 64.5 58.2 64.2 57.8 64.2" fill="#18ff00" data-fill-palette-color="accent"></path><path d="M57.8 90.3C57.4 90.3 57.1 90.6 57.1 91V96.7C57.1 97.1 57.4 97.4 57.8 97.4S58.5 97.1 58.5 96.7V91C58.5 90.6 58.2 90.3 57.8 90.3" fill="#18ff00" data-fill-palette-color="accent"></path></g></svg></g></svg></g><g id="text-0"><path d="M33.285 98.292v0c-0.916 2.405-2.327 4.367-4.231 5.887-1.908 1.525-4.084 2.486-6.53 2.881-2.452 0.393-4.943 0.108-7.474-0.856v0c-2.662-1.014-4.774-2.482-6.337-4.404-1.563-1.922-2.511-4.094-2.844-6.515-0.33-2.428-0.022-4.885 0.925-7.372v0c0.661-1.735 1.491-3.255 2.49-4.56 1.008-1.309 2.246-2.433 3.715-3.372v0c0.613-0.348 1.279-0.384 2-0.11v0c0.551 0.21 0.959 0.57 1.224 1.08 0.265 0.51 0.284 1.062 0.057 1.657v0c-0.143 0.376-0.451 0.743-0.924 1.1v0c-1.148 0.717-2.101 1.563-2.86 2.536-0.756 0.967-1.342 1.999-1.759 3.095v0c-0.98 2.574-0.933 5.02 0.142 7.338 1.073 2.323 3.025 4.024 5.857 5.102v0c2.743 1.045 5.294 1.109 7.65 0.192 2.357-0.917 4.018-2.64 4.982-5.171v0c0.58-1.522 0.814-2.967 0.704-4.336-0.108-1.375-0.461-2.575-1.06-3.599-0.6-1.024-1.305-1.741-2.118-2.151v0c-0.676-0.258-1.143-0.048-1.401 0.629v0l-1.714 4.5c-0.53 1.39-1.449 1.836-2.758 1.338v0c-0.589-0.224-0.981-0.589-1.176-1.094-0.193-0.511-0.169-1.083 0.073-1.715v0l2.751-7.225c0.353-0.927 0.81-1.524 1.371-1.79 0.563-0.273 1.415-0.193 2.554 0.241v0c2.067 0.787 3.77 2.031 5.109 3.731 1.335 1.692 2.166 3.661 2.494 5.909 0.325 2.254 0.021 4.605-0.912 7.054z" fill="#ffffff" data-fill-palette-color="primary"></path><path d="M49.12 70.775v0c-1.571 2.097-3.496 3.632-5.774 4.605-2.278 0.973-4.655 1.323-7.132 1.051-2.477-0.282-4.799-1.234-6.966-2.858v0c-2.28-1.708-3.889-3.701-4.828-5.98-0.941-2.288-1.248-4.649-0.922-7.085 0.331-2.432 1.283-4.696 2.854-6.793v0c1.571-2.097 3.465-3.63 5.682-4.599 2.218-0.959 4.549-1.298 6.992-1.017 2.442 0.272 4.803 1.263 7.083 2.971v0c2.167 1.624 3.737 3.579 4.712 5.867 0.973 2.278 1.326 4.629 1.061 7.051-0.27 2.428-1.19 4.69-2.762 6.787zM45.813 68.297v0c1.085-1.448 1.669-2.999 1.754-4.653 0.088-1.659-0.251-3.258-1.018-4.795-0.77-1.532-1.879-2.84-3.327-3.925v0c-2.312-1.732-4.744-2.482-7.296-2.251-2.547 0.236-4.62 1.421-6.219 3.556v0c-1.624 2.167-2.191 4.506-1.702 7.016 0.494 2.514 1.897 4.638 4.209 6.369v0c1.448 1.085 3.015 1.782 4.702 2.091 1.69 0.304 3.326 0.172 4.906-0.394 1.58-0.566 2.911-1.571 3.991-3.014z" fill="#ffffff" data-fill-palette-color="primary"></path><path d="M63.984 54.335v0c-0.454 0.366-0.997 0.557-1.628 0.575-0.626 0.013-1.166-0.262-1.62-0.826v0l-14.822-18.423c-0.483-0.601-0.645-1.197-0.486-1.79 0.165-0.597 0.474-1.078 0.929-1.444v0c0.496-0.399 1.04-0.605 1.632-0.617 0.598-0.016 1.138 0.276 1.622 0.877v0l4.417 5.49c0.676 0.841 1.174 1.133 1.493 0.877v0c0.282-0.227 0.428-0.693 0.437-1.397v0l1.198-12.784c0.085-0.825 0.357-1.422 0.817-1.792v0c0.527-0.424 1.127-0.614 1.799-0.57 0.668 0.039 1.214 0.322 1.638 0.849v0c0.34 0.423 0.482 0.92 0.425 1.491v0l-1.511 13.035 14.677 2.462c0.624 0.134 1.077 0.376 1.359 0.726v0c0.424 0.527 0.599 1.157 0.525 1.888-0.084 0.73-0.371 1.292-0.862 1.687v0c-0.527 0.424-1.167 0.565-1.919 0.421v0l-14.321-2.659-0.143 1.329c-0.09 0.829 0.119 1.56 0.627 2.192v0l4.166 5.177c0.454 0.564 0.615 1.144 0.484 1.74-0.126 0.592-0.437 1.087-0.933 1.486z" fill="#ffffff" data-fill-palette-color="primary"></path><path d="M94.848 22.897l-6.355-13.409c-0.31-0.654-0.324-1.263-0.042-1.827 0.285-0.558 0.693-0.963 1.226-1.215v0c0.527-0.25 1.083-0.313 1.668-0.19 0.585 0.123 1.043 0.533 1.373 1.23v0l6.354 13.409c1.139 2.404 1.546 4.585 1.22 6.542-0.32 1.954-1.121 3.635-2.404 5.044-1.286 1.403-2.807 2.521-4.563 3.353v0c-1.956 0.927-3.875 1.44-5.757 1.538-1.879 0.089-3.619-0.399-5.222-1.464-1.608-1.062-2.984-2.799-4.126-5.209v0l-6.324-13.345c-0.33-0.697-0.344-1.305-0.043-1.827 0.311-0.518 0.73-0.902 1.257-1.152v0c0.533-0.253 1.086-0.329 1.659-0.23 0.57 0.108 1.021 0.51 1.351 1.207v0l6.324 13.345c1.025 2.162 2.316 3.486 3.874 3.972 1.561 0.492 3.298 0.284 5.212-0.623v0c1.72-0.815 2.954-2.015 3.7-3.601 0.75-1.579 0.622-3.429-0.382-5.548z" fill="#ffffff" data-fill-palette-color="primary"></path><path d="M124.259 25.809l-9.548 2.032c-1.101 0.234-2.057 0.092-2.866-0.429-0.803-0.521-1.322-1.336-1.558-2.443v0l-4.47-21.004c-0.16-0.754-0.023-1.362 0.413-1.825 0.429-0.461 0.933-0.753 1.51-0.876v0c0.577-0.123 1.132-0.056 1.666 0.201 0.541 0.255 0.891 0.759 1.052 1.513v0l4.005 18.82c0.141 0.662 0.372 1.086 0.692 1.271 0.314 0.187 0.779 0.215 1.395 0.084v0l6.834-1.455c0.701-0.149 1.267-0.037 1.696 0.338 0.428 0.368 0.693 0.795 0.797 1.28v0c0.113 0.531 0.047 1.042-0.198 1.533-0.245 0.491-0.718 0.811-1.42 0.96z" fill="#ffffff" data-fill-palette-color="primary"></path><path d="M161.272 28.24v0c-2.537-0.434-4.734-1.439-6.593-3.015-1.865-1.577-3.228-3.527-4.088-5.851-0.859-2.33-1.06-4.829-0.603-7.497v0c0.481-2.808 1.513-5.164 3.097-7.069 1.584-1.905 3.532-3.254 5.843-4.048 2.318-0.793 4.789-0.965 7.412-0.517v0c1.83 0.313 3.481 0.834 4.955 1.562 1.479 0.736 2.821 1.734 4.026 2.995v0c0.459 0.534 0.624 1.181 0.494 1.941v0c-0.1 0.581-0.374 1.051-0.823 1.409-0.449 0.358-0.987 0.484-1.615 0.376v0c-0.396-0.068-0.816-0.299-1.258-0.694v0c-0.926-0.988-1.939-1.76-3.04-2.316-1.095-0.555-2.221-0.931-3.377-1.129v0c-2.715-0.465-5.106 0.054-7.172 1.557-2.073 1.502-3.364 3.745-3.875 6.731v0c-0.495 2.893-0.066 5.408 1.289 7.544 1.355 2.136 3.367 3.432 6.035 3.889v0c1.605 0.275 3.069 0.226 4.391-0.146 1.328-0.371 2.437-0.95 3.326-1.735 0.889-0.786 1.457-1.617 1.702-2.494v0c0.122-0.713-0.174-1.131-0.887-1.253v0l-4.747-0.812c-1.467-0.251-2.082-1.067-1.845-2.448v0c0.106-0.621 0.388-1.076 0.846-1.365 0.464-0.288 1.03-0.375 1.697-0.26v0l7.62 1.304c0.978 0.167 1.652 0.5 2.022 0.999 0.377 0.5 0.462 1.351 0.256 2.553v0c-0.373 2.18-1.265 4.091-2.674 5.733-1.402 1.637-3.174 2.833-5.316 3.588-2.149 0.754-4.514 0.91-7.098 0.468z" fill="#ffffff" data-fill-palette-color="primary"></path><path d="M191.319 38.471v0c-2.361-1.138-4.237-2.731-5.63-4.779-1.393-2.048-2.195-4.313-2.405-6.796-0.201-2.485 0.287-4.947 1.463-7.386v0c1.237-2.566 2.883-4.529 4.938-5.889 2.064-1.364 4.322-2.12 6.775-2.27 2.45-0.143 4.855 0.354 7.215 1.492v0c2.361 1.138 4.23 2.701 5.607 4.69 1.369 1.992 2.15 4.214 2.345 6.666 0.203 2.449-0.314 4.957-1.551 7.523v0c-1.176 2.439-2.792 4.357-4.85 5.753-2.048 1.393-4.286 2.193-6.715 2.399-2.434 0.203-4.831-0.265-7.191-1.403zM193.114 34.749v0c1.63 0.786 3.265 1.061 4.904 0.824 1.645-0.234 3.148-0.874 4.509-1.922 1.355-1.051 2.425-2.391 3.211-4.021v0c1.254-2.602 1.522-5.133 0.803-7.592-0.722-2.454-2.284-4.26-4.686-5.418v0c-2.439-1.176-4.843-1.282-7.213-0.319-2.372 0.969-4.185 2.755-5.44 5.357v0c-0.786 1.63-1.168 3.302-1.146 5.017 0.028 1.717 0.472 3.297 1.332 4.738 0.86 1.441 2.102 2.554 3.726 3.336z" fill="#ffffff" data-fill-palette-color="primary"></path><path d="M210.355 49.895v0c-0.447-0.374-0.726-0.887-0.837-1.539-0.105-0.647 0.029-1.194 0.403-1.641v0l14.037-16.792c0.782-0.936 1.673-1.401 2.673-1.394 0.99 0.007 1.85 0.315 2.581 0.925v0l5.507 4.604c1.183 0.989 2.087 2.143 2.714 3.462 0.632 1.323 0.886 2.697 0.761 4.121-0.13 1.42-0.748 2.791-1.852 4.112v0c-1.707 2.041-3.718 3.125-6.033 3.251-2.315 0.126-4.391-0.578-6.227-2.113v0l-3.479-2.908c-0.869-0.726-1.738-0.57-2.606 0.469v0l-4.436 5.306c-0.374 0.447-0.881 0.683-1.521 0.707-0.635 0.028-1.197-0.162-1.685-0.57zM222.946 40.648v0l3.17 2.65c0.869 0.726 1.929 1.167 3.18 1.322 1.247 0.16 2.405-0.4 3.476-1.681v0c0.838-1.003 1.095-2.068 0.77-3.195-0.319-1.123-0.913-2.048-1.782-2.774v0l-3.224-2.695c-0.864-0.722-1.644-0.667-2.34 0.166v0l-3.218 3.849c-0.782 0.936-0.793 1.722-0.032 2.358z" fill="#ffffff" data-fill-palette-color="primary"></path><path d="M226.577 65.12v0c-0.35-0.467-0.5-1.003-0.452-1.609 0.058-0.605 0.358-1.11 0.9-1.516v0c0.182-0.137 0.444-0.279 0.786-0.426v0l23.466-6.993c0.8-0.206 1.553-0.18 2.257 0.08 0.704 0.268 1.272 0.692 1.707 1.271v0c0.43 0.574 0.681 1.244 0.753 2.011 0.067 0.771-0.111 1.511-0.534 2.222v0l-12.976 20.991c-0.237 0.287-0.447 0.498-0.629 0.635v0c-0.542 0.406-1.111 0.552-1.707 0.438-0.595-0.124-1.067-0.419-1.418-0.885v0c-0.245-0.327-0.416-0.723-0.512-1.187-0.096-0.464-0.03-0.924 0.198-1.379v0l3.432-5.361c0.186-0.198 0.185-0.423-0.003-0.675v0l-6.216-8.295c-0.193-0.257-0.423-0.341-0.689-0.25v0l-5.989 1.95c-0.501 0.091-0.961 0.025-1.379-0.198-0.418-0.223-0.75-0.498-0.995-0.824zM240.105 63.626v0l3.654 4.875c0.165 0.22 0.374 0.331 0.627 0.334 0.257 0.008 0.489-0.119 0.694-0.382v0l5.472-8.171c0.279-0.377 0.336-0.675 0.172-0.894v0c-0.189-0.252-0.503-0.297-0.943-0.135v0l-9.309 3.168c-0.276 0.09-0.446 0.259-0.511 0.509-0.068 0.244-0.02 0.476 0.144 0.695z" fill="#ffffff" data-fill-palette-color="primary"></path><path d="M243.376 90.552v0c-0.229-0.536-0.275-1.107-0.139-1.711 0.132-0.595 0.532-1.035 1.198-1.319v0l21.014-8.951c0.956-0.407 1.8-0.41 2.532-0.007 0.738 0.399 1.257 0.951 1.556 1.653v0c0.462 1.085 0.382 2.052-0.24 2.9v0l-11.764 17.173c-0.246 0.345-0.316 0.644-0.208 0.897v0c0.158 0.37 0.529 0.43 1.115 0.181v0l14.915-6.648c0.666-0.284 1.264-0.265 1.793 0.055 0.527 0.314 0.905 0.74 1.134 1.277v0c0.231 0.543 0.277 1.113 0.139 1.711-0.139 0.598-0.541 1.039-1.207 1.322v0l-21.134 9.003c-0.913 0.389-1.711 0.412-2.396 0.07-0.687-0.348-1.182-0.877-1.484-1.586v0c-0.21-0.493-0.304-1.029-0.281-1.608 0.026-0.572 0.218-1.131 0.576-1.676v0l11.402-16.79c0.244-0.351 0.313-0.651 0.208-0.897v0c-0.16-0.376-0.53-0.441-1.109-0.194v0l-14.702 6.481c-0.666 0.284-1.256 0.276-1.769-0.022-0.517-0.29-0.9-0.728-1.149-1.314z" fill="#ffffff" data-fill-palette-color="primary"></path><path d="M2.702 141.842c0-5.86 4.751-10.611 10.611-10.61 5.86 0 10.611 4.751 10.611 10.61 0 5.86-4.751 10.611-10.611 10.611-5.86 0-10.611-4.751-10.611-10.611z" fill="#ffffff" data-fill-palette-color="primary"></path><path d="M255.796 141.842c0-5.86 4.751-10.611 10.611-10.61 5.86 0 10.611 4.751 10.611 10.61 0 5.86-4.751 10.611-10.611 10.611-5.86 0-10.611-4.751-10.611-10.611z" fill="#ffffff" data-fill-palette-color="primary"></path></g><g id="text-1"><path d="M10.76 188.513v0c-0.151-0.43-0.126-0.836 0.073-1.218 0.202-0.376 0.496-0.632 0.882-0.768v0l19.563-6.856c1.493-0.523 2-1.468 1.521-2.834v0l-1.613-4.601c-0.164-0.468-0.152-0.87 0.036-1.206 0.196-0.332 0.443-0.549 0.74-0.653v0c0.898-0.315 1.512-0.001 1.843 0.941v0l5.779 16.489c0.299 0.854 0 1.438-0.899 1.753v0c-0.297 0.104-0.618 0.11-0.963 0.018-0.341-0.101-0.593-0.385-0.757-0.853v0l-1.656-4.725c-0.479-1.366-1.465-1.788-2.957-1.264v0l-19.563 6.856c-0.386 0.135-0.779 0.106-1.181-0.087-0.401-0.193-0.684-0.524-0.848-0.992z" fill="#08c076" data-fill-palette-color="secondary"></path><path d="M22.38 213.421v0c-0.244-0.377-0.326-0.767-0.244-1.171 0.087-0.408 0.322-0.736 0.704-0.984v0l22.452-14.563c0.416-0.27 0.814-0.34 1.194-0.21 0.383 0.135 0.684 0.371 0.903 0.708v0c0.197 0.304 0.277 0.655 0.24 1.054-0.033 0.405-0.258 0.742-0.674 1.012v0l-9.497 6.16c2.91 0.422 5.139 1.827 6.69 4.217v0c1.255 1.934 1.667 3.956 1.236 6.064-0.436 2.112-1.98 4.029-4.634 5.75v0l-7.954 5.159c-0.382 0.248-0.772 0.337-1.169 0.267-0.388-0.068-0.704-0.291-0.948-0.668v0c-0.248-0.382-0.331-0.776-0.25-1.18 0.091-0.402 0.327-0.727 0.71-0.975v0l7.616-4.94c1.895-1.229 3.036-2.536 3.423-3.922 0.393-1.389 0.123-2.804-0.81-4.243v0c-0.857-1.321-1.866-2.213-3.028-2.673-1.162-0.461-2.317-0.586-3.467-0.376-1.155 0.214-2.188 0.617-3.1 1.207v0l-7.27 4.716c-0.382 0.248-0.772 0.337-1.169 0.267-0.388-0.068-0.706-0.293-0.954-0.676z" fill="#08c076" data-fill-palette-color="secondary"></path><path d="M50.948 246.981v0c-2.363-2.103-3.631-4.484-3.804-7.142-0.169-2.663 0.843-5.226 3.036-7.689v0c1.199-1.347 2.589-2.298 4.17-2.855 1.587-0.553 3.222-0.671 4.907-0.356 1.68 0.32 3.261 1.14 4.743 2.459v0c1.552 1.382 2.541 2.85 2.969 4.406 0.428 1.565 0.457 3.045 0.086 4.438-0.365 1.398-0.967 2.567-1.804 3.509v0c-0.512 0.576-1.059 0.937-1.639 1.085-0.585 0.143-1.113 0.005-1.583-0.414v0l-9.717-8.65c-0.205-0.183-0.366-0.294-0.482-0.335-0.111-0.036-0.256 0.046-0.434 0.246v0c-0.512 0.576-0.882 1.364-1.109 2.364-0.231 1.006-0.22 2.061 0.034 3.167 0.254 1.106 0.808 2.096 1.661 2.972v0c0.919 0.944 1.969 1.699 3.151 2.267 1.187 0.572 2.407 0.9 3.66 0.984v0c0.291 0.016 0.536 0.114 0.736 0.292v0c0.24 0.214 0.377 0.519 0.409 0.916 0.042 0.396-0.073 0.747-0.344 1.052v0c-0.267 0.3-0.69 0.467-1.267 0.501v0c-1.376-0.077-2.706-0.413-3.989-1.007-1.284-0.604-2.413-1.341-3.39-2.21zM53.93 233.955l7.957 7.164c0.265 0.236 0.564 0.304 0.895 0.205 0.327-0.095 0.609-0.342 0.847-0.74v0c0.68-0.965 0.922-2.154 0.726-3.567-0.196-1.413-0.885-2.645-2.066-3.697v0c-0.876-0.78-1.864-1.283-2.965-1.508-1.1-0.226-2.153-0.212-3.159 0.041-1.011 0.249-1.833 0.728-2.466 1.439v0c-0.152 0.17-0.075 0.391 0.231 0.663z" fill="#08c076" data-fill-palette-color="secondary"></path><path d="M103.051 274.639v0c-2.688-0.788-4.628-2.356-5.818-4.703-1.197-2.349-1.369-4.976-0.517-7.883v0c0.826-2.817 2.372-4.871 4.636-6.163 2.256-1.287 4.729-1.536 7.417-0.747v0c2.772 0.813 4.718 2.442 5.838 4.886v0l3.109-10.602c0.14-0.476 0.395-0.789 0.768-0.938 0.378-0.147 0.738-0.171 1.079-0.071v0c0.392 0.115 0.705 0.336 0.937 0.663 0.232 0.327 0.279 0.728 0.139 1.204v0l-7.438 25.361c-0.126 0.431-0.369 0.747-0.729 0.949-0.366 0.2-0.768 0.236-1.205 0.108v0c-0.431-0.126-0.733-0.369-0.908-0.727-0.181-0.36-0.208-0.756-0.081-1.187v0l0.362-1.235c-1.057 0.724-2.241 1.187-3.551 1.389-1.303 0.204-2.649 0.103-4.038-0.304zM103.832 271.976v0c2.039 0.598 3.844 0.467 5.416-0.391 1.564-0.854 2.695-2.475 3.395-4.861v0c0.673-2.296 0.577-4.206-0.288-5.732-0.872-1.527-2.328-2.589-4.367-3.187v0c-1.865-0.547-3.567-0.316-5.106 0.692-1.545 1.006-2.604 2.484-3.175 4.433v0c-0.598 2.039-0.524 3.918 0.221 5.638 0.737 1.725 2.039 2.861 3.904 3.408z" fill="#08c076" data-fill-palette-color="secondary"></path><path d="M140.096 279.717v0c-3.163-0.063-5.674-1.049-7.533-2.956-1.859-1.914-2.755-4.52-2.689-7.817v0c0.036-1.803 0.474-3.429 1.315-4.88 0.847-1.451 2.013-2.604 3.498-3.459 1.485-0.848 3.219-1.253 5.203-1.213v0c2.077 0.042 3.784 0.515 5.12 1.42 1.343 0.912 2.326 2.017 2.95 3.317 0.631 1.3 0.934 2.579 0.908 3.839v0c-0.015 0.771-0.196 1.4-0.54 1.889-0.352 0.489-0.842 0.727-1.473 0.715v0l-13.006-0.261c-0.275-0.006-0.47 0.014-0.584 0.059-0.108 0.045-0.165 0.201-0.171 0.469v0c-0.015 0.771 0.216 1.61 0.694 2.518 0.478 0.915 1.172 1.709 2.084 2.384 0.912 0.675 1.976 1.069 3.194 1.181v0c1.311 0.12 2.601 0.012 3.868-0.325 1.274-0.336 2.414-0.88 3.421-1.631v0c0.231-0.176 0.481-0.262 0.749-0.256v0c0.322 0.006 0.624 0.15 0.907 0.43 0.289 0.274 0.43 0.615 0.421 1.024v0c-0.008 0.402-0.221 0.803-0.637 1.204v0c-1.096 0.836-2.325 1.445-3.687 1.827-1.368 0.375-2.706 0.549-4.012 0.522zM133.898 267.879l10.703 0.275c0.355 0.007 0.626-0.135 0.813-0.426 0.187-0.285 0.241-0.655 0.163-1.113v0c-0.111-1.175-0.699-2.236-1.766-3.183-1.067-0.946-2.391-1.436-3.973-1.467v0c-1.173-0.024-2.25 0.236-3.233 0.78-0.983 0.543-1.774 1.238-2.375 2.084-0.607 0.846-0.92 1.745-0.938 2.696v0c-0.005 0.228 0.198 0.346 0.606 0.354z" fill="#08c076" data-fill-palette-color="secondary"></path><path d="M173.056 275.61v0c-0.443 0.107-0.933 0.063-1.469-0.131-0.53-0.196-0.964-0.508-1.302-0.937v0l-10.611-14.512c-0.156-0.245-0.249-0.433-0.281-0.563v0c-0.127-0.528-0.009-0.949 0.356-1.265 0.363-0.322 0.698-0.52 1.004-0.594v0c0.573-0.139 1.07 0.09 1.49 0.684v0l8.888 12.56c0.211 0.273 0.492 0.367 0.844 0.282v0c0.345-0.083 0.549-0.295 0.612-0.634v0l2.19-15.163c0.102-0.721 0.462-1.156 1.081-1.306v0c0.436-0.105 0.847-0.077 1.231 0.085 0.39 0.161 0.638 0.459 0.744 0.896v0c0.031 0.13 0.037 0.339 0.017 0.627v0l-2.826 17.758c-0.059 0.525-0.283 0.996-0.672 1.414-0.382 0.416-0.814 0.683-1.296 0.799z" fill="#08c076" data-fill-palette-color="secondary"></path><path d="M230.358 241.447v0c-0.213 0.162-0.533 0.262-0.959 0.3v0l-15.785 0.843c-0.745 0.061-1.336-0.197-1.774-0.773v0c-0.409-0.539-0.487-1.162-0.232-1.869v0l5.087-14.924c0.15-0.4 0.332-0.682 0.546-0.844v0c0.181-0.138 0.46-0.219 0.837-0.244 0.372-0.03 0.709 0.152 1.009 0.546v0c0.3 0.395 0.367 0.854 0.199 1.376v0l-4.363 12.506c-0.197 0.494-0.188 0.883 0.028 1.166v0c0.195 0.256 0.569 0.372 1.122 0.347v0l13.217-0.85c0.548-0.021 0.972 0.166 1.272 0.561v0c0.219 0.288 0.311 0.614 0.276 0.978-0.031 0.369-0.191 0.663-0.48 0.881z" fill="#08c076" data-fill-palette-color="secondary"></path><path d="M232.359 199.714l20.813 30.251c0.37 0.559 0.406 1.037 0.11 1.436v0c-0.268 0.36-0.604 0.532-1.009 0.514-0.41-0.021-0.735-0.208-0.973-0.561v0l-20.911-30.237c-0.3-0.507-0.301-0.959-0.006-1.357v0c0.268-0.36 0.602-0.546 1.003-0.557 0.405-0.016 0.729 0.154 0.973 0.511z" fill="#08c076" data-fill-palette-color="secondary"></path><path d="M261.856 196.695v0c-0.125 0.289-0.366 0.503-0.724 0.64-0.355 0.146-0.699 0.148-1.031 0.005v0c-0.456-0.196-0.738-0.566-0.847-1.109v0l-2.355-13.033c-0.112-0.537-0.315-0.869-0.611-0.997v0c-0.326-0.141-0.704-0.059-1.135 0.245v0l-11.088 7.243c-0.47 0.294-0.932 0.343-1.387 0.147v0c-0.456-0.196-0.713-0.479-0.774-0.848-0.066-0.371-0.054-0.662 0.036-0.871v0c0.109-0.252 0.339-0.5 0.692-0.742v0l13.258-8.52c0.625-0.417 1.248-0.491 1.869-0.223v0c0.665 0.286 1.057 0.798 1.178 1.536v0l2.983 15.514c0.066 0.423 0.045 0.76-0.064 1.013z" fill="#08c076" data-fill-palette-color="secondary"></path></g></svg></g></svg></g></svg></g></svg></g><defs></defs></svg><rect width="279.72" height="279.72" fill="none" stroke="none" visibility="hidden"></rect></g></svg></g></svg>